PathFileType	4	(X/Y/Z)	/Users/itak/Documents/Research/Walk-IL/dataset/trc/00132_00007.trc
DataRate	CameraRate	NumFrames	NumMarkers	Units	OrigDataRate	OrigDataStartFrame	OrigNumFrames
100.000000	100.000000	4	53	mm	100.000000	560	747
Frame#	Time	RPSI			LPSI			L3			STRN			T10			C7			CLAV			RBAK			LBAK			LSHO			LUPA			LAEL			LAOL			LWTS			LWPS			LFRA			LIFD			LHPS			LHTS			RSHO			RUPA			RAEL			RAOL			RWTS			RWPS			RFRA			RIFD			RHTS			RHPS			RBHD			LFHD			RFHD			LBHD			LHIP			RHIP			RASI			LASI			LKNE			LTHI			LANK			LTIP			LTOE			LMT1			LMT5			LHEE			RKNE			RTHI			RANK			RTIP			RTOE			RMT1			RMT5			RHEE			
		X1	Y1	Z1	X2	Y2	Z2	X3	Y3	Z3	X4	Y4	Z4	X5	Y5	Z5	X6	Y6	Z6	X7	Y7	Z7	X8	Y8	Z8	X9	Y9	Z9	X10	Y10	Z10	X11	Y11	Z11	X12	Y12	Z12	X13	Y13	Z13	X14	Y14	Z14	X15	Y15	Z15	X16	Y16	Z16	X17	Y17	Z17	X18	Y18	Z18	X19	Y19	Z19	X20	Y20	Z20	X21	Y21	Z21	X22	Y22	Z22	X23	Y23	Z23	X24	Y24	Z24	X25	Y25	Z25	X26	Y26	Z26	X27	Y27	Z27	X28	Y28	Z28	X29	Y29	Z29	X30	Y30	Z30	X31	Y31	Z31	X32	Y32	Z32	X33	Y33	Z33	X34	Y34	Z34	X35	Y35	Z35	X36	Y36	Z36	X37	Y37	Z37	X38	Y38	Z38	X39	Y39	Z39	X40	Y40	Z40	X41	Y41	Z41	X42	Y42	Z42	X43	Y43	Z43	X44	Y44	Z44	X45	Y45	Z45	X46	Y46	Z46	X47	Y47	Z47	X48	Y48	Z48	X49	Y49	Z49	X50	Y50	Z50	X51	Y51	Z51	X52	Y52	Z52	X53	Y53	Z53	

561	5.600000000000001	831.5292358398438	1105.084228515625	235.7057342529297	965.6611938476562	1107.37939453125	257.5438232421875	902.0400390625	1142.317016601562	239.7687225341797	862.3158569335938	1345.761474609375	458.5337829589844	910.0896606445312	1295.474487304688	206.4616546630859	916.1195678710938	1587.429077148438	242.9967346191406	871.925537109375	1480.109985351562	422.0900573730469	841.6459350585938	1400.919067382812	175.7644348144531	1016.701477050781	1569.200805664062	256.8565673828125	1066.796264648438	1557.497680664062	355.4422302246094	1140.4873046875	1426.351196289062	347.5107727050781	1164.057861328125	1207.85595703125	355.5069580078125	1114.308227539062	1196.647338867188	283.5600280761719	1121.274658203125	941.9649047851562	434.4216613769531	1156.557739257812	923.6865234375	354.6027526855469	1170.329833984375	1091.389282226562	365.3971862792969	1098.826293945312	749.2914428710938	425.2752685546875	1155.464599609375	846.0452880859375	376.9505920410156	1131.941528320312	850.5299072265625	442.6814575195312	726.4937133789062	1565.271850585938	260.4640197753906	669.1214599609375	1491.086059570312	229.3302612304688	656.9512329101562	1197.088134765625	210.0843353271484	752.3129272460938	1198.19140625	227.3757781982422	630.3973388671875	961.8043823242188	362.9310913085938	621.0755004882812	939.8472900390625	283.3756103515625	635.6967163085938	1124.156616210938	231.3100280761719	642.54248046875	770.1807861328125	403.3882141113281	617.0805053710938	855.022216796875	395.9151916503906	607.1685180664062	841.9827270507812	323.3401184082031	826.2163696289062	1757.83349609375	267.2364807128906	868.6200561523438	1816.152465820312	475.2921142578125	752.2781372070312	1801.941284179688	422.4867553710938	950.6861572265625	1778.086059570312	314.7678527832031	1055.276611328125	1022.678344726562	371.7425537109375	694.5499877929688	1009.165832519531	345.4664001464844	732.813720703125	1086.75439453125	430.5697326660156	994.8854370117188	1088.896118164062	469.4497985839844	1032.381958007812	526.75341796875	524.8959350585938	1059.208862304688	673.3403930664062	470.9430541992188	1134.30615234375	198.0209808349609	107.8639450073242	1110.76708984375	383.0349426269531	303.0167846679688	1058.942993164062	35.27140045166016	250.1567687988281	1030.288940429688	94.17166137695312	200.4271545410156	1142.409301757812	95.83242034912109	178.6159057617188	1078.9384765625	253.2507781982422	61.67843627929688	801.7976684570312	523.7426147460938	408.7266540527344	722.9129028320312	796.8031616210938	390.2538146972656	922.4990844726562	24.01855659484863	369.4949035644531	815.9253540039062	386.9544677734375	399.8457641601562	914.0723266601562	48.24371719360352	603.0889892578125	966.0133056640625	34.24631500244141	555.8511962890625	866.5504150390625	44.75181198120117	490.4595336914062	983.759521484375	22.57014656066895	329.4811706542969	
562	5.61	832.7259521484375	1105.353515625	242.5507659912109	966.683349609375	1108.193603515625	266.5616455078125	903.041259765625	1142.646606445312	247.8045043945312	859.6200561523438	1346.258911132812	465.8650207519531	911.3591918945312	1295.891723632812	214.5041656494141	916.8416137695312	1587.920654296875	251.1477813720703	870.1143798828125	1480.615600585938	429.6660766601562	843.1358032226562	1401.567626953125	182.7625122070312	1017.147888183594	1569.575073242188	266.3854064941406	1066.038452148438	1557.719360351562	365.6011657714844	1139.843017578125	1426.54443359375	357.9083251953125	1162.97314453125	1207.94921875	364.3897705078125	1113.77294921875	1197.283447265625	292.0281372070312	1119.20068359375	941.7891235351562	441.6294250488281	1154.758178710938	923.7440185546875	361.9014282226562	1168.906372070312	1091.299926757812	373.7307434082031	1096.160888671875	749.236328125	431.5972595214844	1153.301635742188	845.9832153320312	383.9022521972656	1129.539794921875	850.2991943359375	449.5345153808594	727.0070190429688	1566.005737304688	266.0692749023438	669.8596801757812	1491.8935546875	234.2413024902344	657.0624389648438	1197.7080078125	215.5187835693359	752.2767944335938	1198.58544921875	233.7222137451172	627.9946899414062	964.6764526367188	371.4039001464844	619.2925415039062	941.5223388671875	292.1405944824219	635.3095092773438	1124.90234375	237.4003753662109	638.4716796875	773.697021484375	414.9337768554688	613.6620483398438	858.5764770507812	405.8998718261719	604.3863525390625	844.429931640625	333.4483337402344	826.6387329101562	1758.62548828125	274.7805480957031	866.723388671875	1816.197387695312	483.5319519042969	750.964111328125	1802.178344726562	429.3318786621094	950.5433959960938	1778.649291992188	323.8033447265625	1053.820678710938	1023.466613769531	383.0069580078125	693.827392578125	1009.280944824219	349.385498046875	730.1382446289062	1087.025512695312	435.3147888183594	991.4620361328125	1089.687622070312	479.3212890625	1025.978515625	530.0501708984375	542.8734130859375	1055.081909179688	675.6209716796875	487.2998046875	1139.530517578125	192.0330810546875	137.6516265869141	1110.130126953125	381.7701110839844	326.1779174804688	1064.478881835938	35.2253532409668	286.3832397460938	1035.56298828125	90.41511535644531	232.7388153076172	1148.343383789062	94.25681304931641	214.0143432617188	1084.327514648438	243.6071319580078	87.31658935546875	801.1793823242188	523.4576416015625	410.6034240722656	722.0443725585938	796.5431518554688	393.04541015625	922.562744140625	24.10078430175781	369.6434936523438	815.7711181640625	386.7520141601562	401.1202697753906	914.1694946289062	47.02165603637695	603.6565551757812	966.0025024414062	33.71254348754883	556.0594482421875	866.48681640625	44.55850219726562	490.6754455566406	984.1046142578125	22.53208541870117	329.6171875	
563	5.62	833.9025268554688	1105.573486328125	249.5117034912109	967.7276611328125	1109.05810546875	275.5924987792969	904.0250244140625	1142.959838867188	255.9286651611328	856.8303833007812	1346.730712890625	473.1551513671875	912.6243286132812	1296.264770507812	222.5913238525391	917.5216064453125	1588.39892578125	259.2740173339844	868.1982421875	1481.0830078125	437.1958312988281	844.6351318359375	1402.203369140625	189.7057647705078	1017.514343261719	1569.9169921875	275.945556640625	1065.154174804688	1557.887573242188	375.7745361328125	1139.097290039062	1426.699829101562	368.3677368164062	1161.869018554688	1208.031982421875	373.4358215332031	1113.316040039062	1197.870849609375	300.6052551269531	1117.080810546875	941.6353759765625	449.0569763183594	1153.031372070312	923.7874755859375	369.4802551269531	1167.501831054688	1091.235229492188	382.24462890625	1093.430419921875	749.2044067382812	438.1564025878906	1151.16796875	845.9149169921875	391.1553344726562	1127.03515625	850.0733032226562	456.6366577148438	727.4873657226562	1566.710815429688	271.6074523925781	670.6199340820312	1492.684692382812	239.0415954589844	657.2517700195312	1198.30126953125	220.7480316162109	752.2335205078125	1198.932861328125	240.0013427734375	625.5885620117188	967.5974731445312	379.6263427734375	617.5279541015625	943.2321166992188	300.6776428222656	635.0062866210938	1125.65966796875	243.2499237060547	634.2866821289062	777.33984375	426.2722473144531	610.18408203125	862.2251586914062	415.6353759765625	601.5843505859375	846.9647216796875	343.3242797851562	826.9881591796875	1759.397338867188	282.3214416503906	864.75927734375	1816.216430664062	491.7657775878906	749.5921630859375	1802.390869140625	436.1513366699219	950.3189697265625	1779.191162109375	332.80419921875	1052.305053710938	1024.283447265625	394.3677673339844	693.1976318359375	1009.356628417969	353.2013854980469	727.4901733398438	1087.261596679688	439.9972534179688	987.9306640625	1090.463745117188	489.1743469238281	1019.21728515625	533.3380126953125	560.1746826171875	1050.664306640625	677.9088745117188	503.2538452148438	1143.959838867188	185.4180908203125	168.1689300537109	1108.986206054688	380.0750122070312	349.2502136230469	1068.999145507812	35.34038162231445	323.5476989746094	1039.95458984375	86.50341796875	266.0137023925781	1153.247924804688	92.59925842285156	250.2222595214844	1089.098876953125	232.9776000976562	113.7338333129883	800.6019897460938	523.1712646484375	412.6180419921875	721.222412109375	796.249267578125	395.8511657714844	922.5243530273438	24.23313331604004	369.7971801757812	815.7150268554688	386.5504150390625	402.5427856445312	914.2394409179688	45.77720642089844	604.2968139648438	965.998779296875	33.21259689331055	556.318359375	866.42529296875	44.33536148071289	490.9332275390625	984.3621826171875	22.54728126525879	329.7344970703125	
564	5.63	835.0591430664062	1105.743041992188	256.5881652832031	968.7584838867188	1109.933715820312	284.6877746582031	904.9968872070312	1143.270874023438	264.1361083984375	853.9566650390625	1347.1806640625	480.4042663574219	913.878173828125	1296.599609375	230.7342071533203	918.1527709960938	1588.869262695312	267.3772277832031	866.1851806640625	1481.517700195312	444.6826477050781	846.1240234375	1402.8291015625	196.6123657226562	1017.789611816406	1570.228271484375	285.5329284667969	1064.143310546875	1558.00927734375	385.9505615234375	1138.235717773438	1426.818359375	378.8866882324219	1160.724243164062	1208.105346679688	382.672119140625	1112.916748046875	1198.409057617188	309.3189392089844	1114.893920898438	941.4924926757812	456.7058410644531	1151.379028320312	923.8232421875	377.3507080078125	1166.09619140625	1091.193481445312	390.9713439941406	1090.675048828125	749.1806640625	444.9267883300781	1149.08740234375	845.848388671875	398.7152709960938	1124.440185546875	849.8521728515625	463.9898681640625	727.9234008789062	1567.389282226562	277.0982360839844	671.39453125	1493.465087890625	243.7534942626953	657.5094604492188	1198.873291015625	225.8049774169922	752.169677734375	1199.244995117188	246.2438507080078	623.1884155273438	970.5479125976562	387.5903015136719	615.7936401367188	944.9683837890625	308.9769897460938	634.7713623046875	1126.421630859375	248.89990234375	630.0235595703125	781.0859985351562	437.3663024902344	606.6605834960938	865.9317016601562	425.086669921875	598.7880249023438	849.5647583007812	352.9434204101562	827.2608642578125	1760.147705078125	289.856201171875	862.738037109375	1816.21728515625	499.9976196289062	748.1596069335938	1802.583129882812	442.9470825195312	950.0075073242188	1779.713256835938	341.7713317871094	1050.72216796875	1025.134765625	405.8363037109375	692.6561279296875	1009.409423828125	356.9442138671875	724.8705444335938	1087.4775390625	444.6281127929688	984.294677734375	1091.228515625	499.0126647949219	1012.134216308594	536.5868530273438	576.7874755859375	1045.955932617188	680.1710815429688	518.7913818359375	1147.504760742188	178.2629852294922	199.3736724853516	1107.322021484375	377.984130859375	372.2338256835938	1072.299682617188	35.66797256469727	361.4209289550781	1043.335571289062	82.57781982421875	300.1355895996094	1156.960815429688	90.88822174072266	287.0592346191406	1093.18798828125	221.5213165283203	140.9564514160156	800.0846557617188	522.8864135742188	414.770751953125	720.4359741210938	795.9066772460938	398.7091674804688	922.4090576171875	24.40448760986328	369.9606323242188	815.7717895507812	386.3467712402344	404.1138916015625	914.27783203125	44.51997375488281	605.00341796875	966.0198364257812	32.75791931152344	556.633056640625	866.3788452148438	44.08195877075195	491.2445983886719	984.4859008789062	22.63674354553223	329.8180541992188	
